<?xml version="1.0" encoding="UTF-8"?><svg id="Capa_1" xmlns="http://www.w3.org/2000/svg" viewBox="0 0 470.13 163.02"><defs><style>.cls-1{fill:#fff;}.cls-1,.cls-2{stroke-width:0px;}.cls-2{fill:#82cde5;}</style></defs><path class="cls-1" d="m0,65.98c0-6.54,5.17-11.71,11.71-11.71h2.43c5.63,0,8.97,2.74,12.17,6.84l45.17,59.32v-54.91c0-6.39,5.17-11.56,11.56-11.56s11.56,5.17,11.56,11.56v84.72c0,6.54-5.17,11.71-11.71,11.71h-.76c-5.63,0-8.97-2.74-12.17-6.85l-46.85-61.45v57.04c0,6.39-5.17,11.56-11.56,11.56s-11.56-5.17-11.56-11.56v-84.72Z"/><path class="cls-1" d="m121.22,65.68c0-6.54,5.17-11.71,11.71-11.71s11.71,5.17,11.71,11.71v84.87c0,6.54-5.17,11.71-11.71,11.71s-11.71-5.17-11.71-11.71v-84.87Z"/><path class="cls-1" d="m165.33,146.29l37.11-83.8c2.59-5.78,7.3-9.28,13.69-9.28h1.37c6.39,0,10.95,3.5,13.54,9.28l37.11,83.8c.76,1.67,1.22,3.19,1.22,4.71,0,6.24-4.87,11.26-11.1,11.26-5.48,0-9.13-3.19-11.26-8.06l-7.15-16.73h-46.85l-7.45,17.49c-1.98,4.56-5.93,7.3-10.8,7.3-6.08,0-10.8-4.87-10.8-10.95,0-1.67.61-3.35,1.37-5.02Zm65.86-29.51l-14.75-35.13-14.75,35.13h29.51Z"/><path class="cls-1" d="m446.71,65.68c0-6.54,5.17-11.71,11.71-11.71s11.71,5.17,11.71,11.71v84.87c0,6.54-5.17,11.71-11.71,11.71s-11.71-5.17-11.71-11.71v-84.87Z"/><path class="cls-2" d="m283.31,101.64c-.46-1.37-.91-3.04-.91-4.41,0-6.54,5.48-11.41,12.02-11.41,5.48,0,9.89,3.5,11.41,8.36l9.79,33.39,21.29-64.64c1.82-5.48,5.93-9.28,11.86-9.28h1.82c5.93,0,10.04,3.65,11.86,9.28l21.29,64.64,16.03-50.9c1.52-4.56,5.48-8.36,11.25-8.36,6.39,0,11.56,4.87,11.56,11.25,0,1.37-.46,3.19-.91,4.56l-24.7,69.3c-2.13,5.93-6.54,9.58-12.17,9.58h-2.43c-5.63,0-9.89-3.5-12.02-9.58l-20.99-60.99-20.99,60.99c-2.13,6.08-6.39,9.58-12.02,9.58h-2.43c-5.63,0-10.04-3.65-12.17-9.58l-18.46-51.79Z"/><circle class="cls-2" cx="349.44" cy="15.01" r="15.01"/><circle class="cls-2" cx="426.05" cy="33.31" r="11.71"/><circle class="cls-2" cx="275.87" cy="49.8" r="11.71"/></svg>